<?xml version="1.0" encoding="UTF-8"?>
<svg width="38px" height="38px" viewBox="0 0 38 38" version="1.1" xmlns="http://www.w3.org/2000/svg" xmlns:xlink="http://www.w3.org/1999/xlink">
    <!-- Generator: Sketch 49 (51002) - http://www.bohemiancoding.com/sketch -->
    <title>noun_1035214_cc</title>
    <desc>Created with Sketch.</desc>
    <defs></defs>
    <g id="Page-1" stroke="none" stroke-width="1" fill="none" fill-rule="evenodd">
        <g id="Sunnah-Master's-Degree--Overview" transform="translate(-1113.000000, -998.000000)" fill="#01273F" fill-rule="nonzero">
            <g id="Group-9" transform="translate(1113.000000, 835.000000)">
                <g id="noun_1035214_cc" transform="translate(0.000000, 163.000000)">
                    <path d="M36.5791552,11.8004291 C33.6583969,4.66296784 26.7119506,-1.06532797e-06 19,-1.06532797e-06 C11.2880494,-1.06532797e-06 4.34160309,4.66296784 1.42084478,11.8004291 C1.39160822,11.855193 1.36872851,11.9131198 1.3526513,11.9730813 C-0.450884414,16.4841173 -0.450884414,21.5159116 1.3526513,26.0269476 C1.36872851,26.0869091 1.39160822,26.1448359 1.42084478,26.1995998 C4.34160309,33.3370611 11.2880494,38.00003 19,38.00003 C26.7119506,38.00003 33.6583969,33.3370611 36.5791552,26.1995998 C36.6083918,26.1448359 36.6312715,26.0869091 36.6473487,26.0269476 C38.4508844,21.5159116 38.4508844,16.4841173 36.6473487,11.9730813 C36.6312715,11.9131198 36.6083918,11.855193 36.5791552,11.8004291 Z M19,36.3478261 C15.8185285,36.3478261 12.9894904,32.3358026 11.6170998,26.6413043 L26.3829002,26.6413043 C25.0105096,32.3358026 22.1814715,36.3478261 19,36.3478261 Z M11.2681648,24.9891304 C10.5627841,21.0275309 10.5627841,16.9724691 11.2681648,13.0108696 L26.7318352,13.0108696 C27.086417,14.9874771 27.2634673,16.9918419 27.2608696,19 C27.2634673,21.0081581 27.086417,23.0125229 26.7318352,24.9891304 L11.2681648,24.9891304 Z M1.65217391,19 C1.65036745,16.9562408 2.01144314,14.9283935 2.71859022,13.0108696 L9.573815,13.0108696 C8.92466986,16.9772386 8.92466986,21.0227614 9.573815,24.9891304 L2.71859022,24.9891304 C2.01144314,23.0716065 1.65036745,21.0437592 1.65217391,19 Z M19,1.65217391 C22.1814715,1.65217391 25.0105096,5.66419739 26.3829002,11.3586957 L11.6170998,11.3586957 C12.9894904,5.66419739 15.8185285,1.65217391 19,1.65217391 Z M28.426185,13.0108696 L35.2814098,13.0108696 C36.7032972,16.8770336 36.7032972,21.1229664 35.2814098,24.9891304 L28.426185,24.9891304 C28.7538568,23.0096574 28.9167017,21.0064069 28.9130435,19 C28.9167017,16.9935931 28.7538568,14.9903426 28.426185,13.0108696 Z M34.5694261,11.3586957 L28.1045026,11.3586957 C27.2425924,7.50146435 25.7404565,4.34245413 23.8385648,2.34391435 C28.5195415,3.71456885 32.4117808,6.98436101 34.5694261,11.3586957 Z M14.1614352,2.34391435 C12.2595435,4.34245413 10.7574076,7.50146435 9.89549739,11.3586957 L3.43057391,11.3586957 C5.5882192,6.98436101 9.4804585,3.71456885 14.1614352,2.34391435 Z M3.43057391,26.6413043 L9.89549739,26.6413043 C10.7574076,30.4985357 12.2595559,33.6575459 14.1614352,35.6560857 C9.4804585,34.2854312 5.5882192,31.015639 3.43057391,26.6413043 Z M23.8385648,35.6560857 C25.7404565,33.6575459 27.2425924,30.4985357 28.1045026,26.6413043 L34.5694261,26.6413043 C32.4117808,31.015639 28.5195415,34.2854312 23.8385648,35.6560857 Z" id="Shape"></path>
                </g>
            </g>
        </g>
    </g>
</svg>