<?xml version="1.0" encoding="UTF-8"?>
<svg width="38px" height="38px" viewBox="0 0 38 38" version="1.1" xmlns="http://www.w3.org/2000/svg" xmlns:xlink="http://www.w3.org/1999/xlink">
    <!-- Generator: Sketch 49 (51002) - http://www.bohemiancoding.com/sketch -->
    <title>noun_1002145_cc</title>
    <desc>Created with Sketch.</desc>
    <defs></defs>
    <g id="Page-1" stroke="none" stroke-width="1" fill="none" fill-rule="evenodd">
        <g id="Sunnah-Master's-Degree--Overview" transform="translate(-1113.000000, -835.000000)" fill="#f1dd7e" fill-rule="nonzero">
            <g id="Group-9" transform="translate(1113.000000, 835.000000)">
                <g id="noun_1002145_cc">
                    <g id="Group">
                        <path d="M18.99924,0.00038 C8.5234,0.00038 0,8.5234 0,19 C0,24.0749 1.97638,28.8458 5.5651,32.4349 C5.87974,32.74954 6.38932,32.74954 6.70358,32.4349 C7.01822,32.12064 7.01822,31.61106 6.70358,31.29604 C3.41924,28.0117 1.61082,23.64512 1.61082,19 C1.61082,9.41146 9.41184,1.61006 18.99924,1.61006 C28.58854,1.61006 36.38994,9.41146 36.38994,19 C36.38994,28.58854 28.58854,36.38918 18.99924,36.38918 C18.5554,36.38918 18.1944,36.7498 18.1944,37.19554 C18.1944,37.63976 18.5554,37.99962 18.99924,37.99962 C29.4766,37.99962 38,29.4766 38,19 C38,8.5234 29.4766,0.00038 18.99924,0.00038 Z" id="Shape"></path>
                        <path d="M18.1944,29.83456 C18.1944,30.27954 18.5554,30.63978 18.99924,30.63978 C19.4446,30.63978 19.80522,30.27954 19.80522,29.83456 L19.80522,27.58078 C22.29346,27.19128 24.20448,25.03972 24.20448,22.4447 C24.20448,19.57228 22.2433,17.57956 19.08398,17.24402 C17.22578,17.0468 16.36052,16.20662 16.36052,14.60036 C16.36052,13.14496 17.54422,11.96126 18.99886,11.96126 C20.45464,11.96126 21.63872,13.14534 21.63872,14.60036 C21.63872,15.04496 21.99858,15.40558 22.44356,15.40558 C22.88854,15.40558 23.24878,15.04496 23.24878,14.60036 C23.24878,12.53278 21.76412,10.8072 19.80484,10.42948 L19.80484,8.16582 C19.80484,7.72084 19.44422,7.3606 18.99886,7.3606 C18.55502,7.3606 18.19402,7.72084 18.19402,8.16582 L18.19402,10.4291 C16.2355,10.80682 14.75046,12.5324 14.75046,14.60036 C14.75046,15.79014 15.10348,16.7637 15.8004,17.49558 C16.51594,18.24836 17.5636,18.7017 18.9145,18.84572 C21.25302,19.0931 22.59442,20.40562 22.59442,22.4447 C22.59442,24.4264 20.9817,26.03912 18.99924,26.03912 C17.01754,26.03912 15.4052,24.4264 15.4052,22.4447 C15.4052,22.0001 15.04496,21.63986 14.59998,21.63986 C14.15538,21.63986 13.79438,22.0001 13.79438,22.4447 C13.79438,25.0401 15.70654,27.19166 18.1944,27.58116 L18.1944,29.83456 Z" id="Shape"></path>
                    </g>
                </g>
            </g>
        </g>
    </g>
</svg>