<?xml version="1.0" encoding="UTF-8"?>
<svg width="38px" height="38px" viewBox="0 0 38 38" version="1.1" xmlns="http://www.w3.org/2000/svg" xmlns:xlink="http://www.w3.org/1999/xlink">
    <!-- Generator: Sketch 49 (51002) - http://www.bohemiancoding.com/sketch -->
    <title>noun_575602_cc</title>
    <desc>Created with Sketch.</desc>
    <defs></defs>
    <g id="Page-1" stroke="none" stroke-width="1" fill="none" fill-rule="evenodd">
        <g id="Sunnah-Master's-Degree--Overview" transform="translate(-1113.000000, -916.000000)" fill="#01273F" fill-rule="nonzero">
            <g id="Group-9" transform="translate(1113.000000, 835.000000)">
                <g id="noun_575602_cc" transform="translate(0.000000, 81.000000)">
                    <path d="M25.9206341,1.78414634 C23.7212683,0.89902439 21.3926098,0.44997561 18.9995366,0.44997561 C9.65246341,0.44997561 1.73826829,7.43456098 0.591317073,16.6959024 C0.497243902,17.453122 0.449512195,18.228878 0.449512195,19.0009268 C0.449512195,29.2289512 8.77104878,37.5500244 18.9995366,37.5500244 C29.2284878,37.5500244 37.5500244,29.2289512 37.5500244,19.0009268 C37.5500244,11.3837805 32.9858537,4.62534146 25.9206341,1.78414634 Z M18.9995366,36.1597805 C9.53753659,36.1597805 1.8397561,28.4624634 1.8397561,19.0009268 C1.8397561,18.285878 1.88378049,17.5680488 1.97136585,16.8673659 C3.03212195,8.30068293 10.3526829,1.84021951 19,1.84021951 C21.2137317,1.84021951 23.3676829,2.25543902 25.4016098,3.07382927 C31.9371463,5.70278049 36.1597805,11.9542439 36.1597805,19.0009268 C36.1597805,28.4624634 28.462,36.1597805 18.9995366,36.1597805 Z M28.9476585,18.304878 L19.695122,18.304878 L19.695122,6.8242439 C19.695122,6.44007317 19.3837073,6.12912195 19,6.12912195 C18.6162927,6.12912195 18.304878,6.44007317 18.304878,6.8242439 L18.304878,19 C18.304878,19.3841707 18.6162927,19.695122 19,19.695122 L28.9476585,19.695122 C29.3313659,19.695122 29.6427805,19.3841707 29.6427805,19 C29.6427805,18.6158293 29.3313659,18.304878 28.9476585,18.304878 Z" id="Shape"></path>
                </g>
            </g>
        </g>
    </g>
</svg>