<?xml version="1.0" standalone="no"?>
<!DOCTYPE svg PUBLIC "-//W3C//DTD SVG 20010904//EN"
 "http://www.w3.org/TR/2001/REC-SVG-20010904/DTD/svg10.dtd">
<svg version="1.0" xmlns="http://www.w3.org/2000/svg"
 width="589.000000pt" height="589.000000pt" viewBox="0 0 589.000000 589.000000"
 preserveAspectRatio="xMidYMid meet">
<metadata>
Created by potrace 1.11, written by Peter Selinger 2001-2013
</metadata>
<g transform="translate(0.000000,589.000000) scale(0.100000,-0.100000)"
fill="#000000" stroke="none">
<path d="M2846 5406 c-99 -49 -158 -136 -159 -236 -1 -120 92 -234 214 -263
22 -6 25 -11 23 -44 -13 -204 -14 -206 -34 -225 -26 -24 -26 -70 0 -93 11 -10
17 -21 15 -25 -3 -4 -6 -28 -6 -53 -2 -44 -4 -46 -38 -52 -71 -13 -141 -63
-155 -112 -5 -16 -20 -24 -59 -33 -29 -7 -95 -28 -147 -47 -290 -107 -493
-308 -560 -555 -10 -39 -17 -47 -38 -50 -31 -4 -55 -37 -42 -58 14 -23 107
-25 927 -24 597 1 741 -2 732 -12 -27 -33 -9 -113 32 -134 38 -21 99 -15 126
13 29 29 32 62 10 106 l-15 31 79 0 c43 0 79 -3 79 -7 0 -5 -7 -16 -15 -26
-13 -18 -13 -36 0 -77 21 -65 160 -69 182 -5 12 36 11 43 -8 79 -19 35 -19 36
0 36 53 0 61 67 10 77 -24 4 -31 13 -39 47 -68 263 -292 475 -612 576 -51 16
-105 31 -119 34 -15 3 -35 21 -50 42 -31 48 -64 72 -130 94 l-54 19 -3 51 c-2
34 2 58 11 69 26 30 26 59 1 86 -24 26 -24 25 -36 225 -2 29 4 37 30 35 59 -3
156 35 210 83 29 27 42 52 25 52 -3 0 -30 -11 -60 -25 -187 -89 -399 56 -360
245 12 57 95 143 148 155 45 10 34 25 -18 25 -30 -1 -67 -10 -97 -24z m-401
-1516 c3 -5 1 -10 -4 -10 -6 0 -11 5 -11 10 0 6 2 10 4 10 3 0 8 -4 11 -10z
m510 0 c3 -5 1 -10 -4 -10 -6 0 -11 5 -11 10 0 6 2 10 4 10 3 0 8 -4 11 -10z
m-539 -9 c-6 -9 -46 -22 -46 -15 0 3 10 9 23 14 29 11 29 11 23 1z m69 -9 c-3
-3 -11 0 -18 7 -9 10 -8 11 6 5 10 -3 15 -9 12 -12z m441 9 c-6 -9 -46 -22
-46 -15 0 3 10 9 23 14 29 11 29 11 23 1z m69 -9 c-3 -3 -11 0 -18 7 -9 10 -8
11 6 5 10 -3 15 -9 12 -12z m465 14 c0 -2 -11 -6 -25 -8 -13 -3 -22 -1 -19 3
5 9 44 13 44 5z m35 -14 c-3 -3 -11 0 -18 7 -9 10 -8 11 6 5 10 -3 15 -9 12
-12z m-925 -52 l35 -32 -45 33 c-55 40 -72 55 -45 41 11 -6 36 -25 55 -42z
m517 -3 c13 -11 21 -22 19 -24 -2 -2 -14 6 -27 19 -13 13 -35 31 -49 41 -25
18 -25 18 5 1 17 -9 40 -26 52 -37z m298 43 c-3 -5 -12 -10 -18 -10 -7 0 -6 4
3 10 19 12 23 12 15 0z m-1025 -4 c0 -3 -13 -14 -30 -26 -16 -12 -30 -18 -30
-13 0 4 12 15 28 25 32 19 32 19 32 14z m472 -32 c-23 -19 -42 -44 -42 -54 0
-10 -4 -22 -10 -25 -5 -3 -10 0 -10 8 0 25 71 106 94 107 5 0 -9 -16 -32 -36z
m768 -20 c0 -2 -16 6 -35 18 -19 13 -35 27 -35 31 0 4 16 -4 35 -19 19 -14 35
-28 35 -30z m-273 13 c-15 -12 -33 -40 -41 -62 -8 -22 -15 -35 -15 -28 -2 24
21 69 47 94 15 15 29 25 32 22 2 -2 -8 -14 -23 -26z m-1046 -30 c-10 -9 -11
-8 -5 6 3 10 9 15 12 12 3 -3 0 -11 -7 -18z m1348 -39 c1 -5 -3 -8 -9 -8 -5 0
-10 12 -9 28 0 24 1 25 9 7 5 -11 9 -23 9 -27z m-1016 12 c7 -26 -3 -100 -14
-100 -8 0 -5 24 6 60 3 11 1 28 -5 40 -6 11 -7 20 -2 20 6 0 12 -9 15 -20z
m512 -8 c-8 -8 -25 10 -19 20 4 6 9 5 15 -3 4 -7 6 -15 4 -17z m-845 9 c0 -6
-4 -13 -10 -16 -5 -3 -10 1 -10 9 0 9 5 16 10 16 6 0 10 -4 10 -9z m-25 -115
c-14 -14 -25 -21 -25 -17 0 4 9 16 20 26 14 12 18 26 15 49 l-5 31 10 -32 c9
-28 7 -35 -15 -57z m511 3 c-14 -17 -26 -27 -26 -22 0 5 9 19 20 31 14 15 19
30 15 49 l-5 28 11 -28 c9 -23 7 -31 -15 -58z m527 31 c3 -11 2 -20 -3 -20 -4
0 -10 11 -12 25 -6 29 7 25 15 -5z m330 0 c-3 -11 0 -20 5 -20 6 0 17 -10 23
-22 l11 -23 -21 23 c-12 12 -26 22 -32 22 -6 0 -6 7 1 20 6 11 12 20 14 20 2
0 2 -9 -1 -20z m-503 -5 c0 -8 -4 -15 -8 -15 -5 0 -9 7 -9 15 0 8 4 15 9 15 4
0 8 -7 8 -15z m35 -45 c3 -5 1 -10 -4 -10 -6 0 -11 5 -11 10 0 6 2 10 4 10 3
0 8 -4 11 -10z"/>
<path d="M1925 3497 c-21 -30 -19 -59 6 -86 31 -33 19 -70 -22 -69 -17 1 -34
-4 -37 -9 -9 -14 -7 -1069 2 -1103 7 -29 43 -64 77 -76 23 -7 958 -14 990 -6
13 3 15 62 14 535 0 293 4 546 9 563 10 37 50 63 106 69 l40 4 0 -223 0 -224
23 -4 c18 -3 480 -2 525 1 7 1 23 12 36 24 23 23 24 27 24 235 0 117 -3 212
-6 213 -4 1 -51 2 -105 3 -79 1 -100 -2 -106 -14 -4 -8 -7 -68 -6 -133 0 -65
-3 -121 -7 -123 -16 -10 -140 -9 -146 1 -4 5 -8 105 -8 220 -1 116 -2 213 -3
216 -1 8 -307 3 -341 -6 -14 -3 -29 -7 -35 -8 -32 -7 -106 -52 -141 -84 -97
-91 -98 -97 -100 -603 -1 -234 -3 -435 -3 -447 l-1 -23 -310 0 -310 0 0 500 0
500 -22 1 c-13 1 -30 1 -39 0 -10 -1 -18 8 -22 24 -3 21 0 28 19 35 13 5 24
16 24 25 0 12 -8 15 -35 12 -42 -5 -71 23 -55 54 15 27 -16 33 -35 6z"/>
<path d="M3818 3338 c0 -2 -2 -224 -3 -494 -1 -449 -3 -494 -19 -518 -9 -15
-27 -31 -39 -36 -12 -4 -159 -9 -326 -9 -171 -1 -309 -6 -316 -11 -7 -5 -10
-40 -9 -87 l1 -78 354 -1 c360 0 414 3 473 31 38 18 92 88 101 131 5 22 10
1028 6 1065 -1 7 -219 13 -223 7z"/>
<path d="M3112 2821 c-6 -13 -8 -92 -3 -138 1 -8 43 -11 144 -12 171 -1 200
-5 231 -28 34 -25 46 -55 46 -113 l0 -50 -210 0 c-161 0 -210 -3 -211 -12 -5
-55 -4 -126 2 -138 6 -13 46 -15 276 -14 288 0 304 3 320 51 9 28 9 230 0 270
-21 87 -118 171 -217 188 -25 5 -118 9 -208 10 -139 1 -164 -1 -170 -14z"/>
<path d="M177 2433 c-2 -1 -42 -3 -90 -4 l-87 -2 0 -274 0 -275 53 6 c203 26
597 26 842 1 22 -2 67 -7 100 -10 33 -3 67 -7 75 -10 8 -2 35 -6 60 -9 25 -3
55 -8 66 -10 12 -2 37 -7 55 -10 19 -3 45 -8 59 -11 14 -3 39 -8 55 -11 17 -3
48 -9 70 -14 22 -5 54 -11 70 -14 17 -3 71 -17 120 -31 50 -14 99 -28 110 -30
118 -27 411 -141 534 -208 57 -31 228 -134 246 -149 6 -4 69 -49 140 -99 72
-51 163 -117 203 -148 40 -31 78 -56 85 -56 10 0 142 93 200 141 10 8 73 53
140 100 187 132 356 228 537 307 122 53 414 139 631 186 138 31 163 35 234 46
23 3 52 7 65 10 65 13 280 36 391 42 224 12 591 6 705 -13 21 -3 33 0 36 8 2
7 4 130 4 272 -1 251 -2 259 -21 263 -28 5 -339 4 -400 -2 -172 -16 -237 -24
-330 -40 -44 -8 -93 -16 -109 -19 -16 -3 -52 -10 -80 -16 -48 -10 -66 -13
-118 -25 -54 -12 -347 -99 -393 -117 -27 -11 -57 -21 -65 -23 -22 -5 -224 -88
-305 -125 -311 -142 -620 -326 -857 -511 -107 -83 -212 -172 -237 -201 -9 -10
-19 -18 -23 -18 -6 0 -153 123 -168 140 -32 38 -397 292 -530 369 -54 31 -273
151 -277 151 -2 0 -49 22 -106 49 -272 130 -691 269 -972 321 -140 26 -224 39
-280 45 -33 4 -71 8 -85 11 -21 3 -131 9 -313 18 -21 1 -39 1 -40 -1z"/>
<path d="M2223 2132 c-29 -4 -63 -47 -63 -79 0 -65 52 -105 121 -93 50 9 71
33 73 81 1 65 -54 103 -131 91z"/>
<path d="M2465 2132 c-51 -5 -80 -34 -80 -81 0 -59 37 -94 99 -94 49 0 70 12
90 52 23 45 -10 106 -64 122 -8 2 -28 3 -45 1z"/>
<path d="M345 1880 c-5 -9 -10 -306 -6 -404 1 -17 8 -17 104 -10 187 15 628 9
782 -11 16 -3 55 -7 85 -11 30 -3 62 -7 70 -9 8 -1 40 -6 70 -10 30 -4 64 -9
75 -11 11 -3 36 -7 55 -10 19 -3 67 -12 105 -21 39 -8 81 -17 95 -19 14 -3 46
-11 73 -19 26 -8 48 -14 50 -13 3 0 86 -22 122 -33 17 -5 59 -17 95 -28 163
-48 392 -141 582 -236 112 -57 140 -57 92 1 -13 16 -23 35 -24 42 0 6 -4 12
-10 12 -5 0 -10 6 -10 13 0 6 -22 43 -48 81 -41 60 -59 77 -143 127 -138 83
-325 178 -469 238 -69 29 -138 59 -155 66 -40 17 -283 98 -370 124 -71 20
-284 71 -320 76 -11 2 -20 4 -20 5 0 1 -9 3 -20 4 -23 3 -101 17 -130 22 -11
3 -36 6 -55 9 -19 2 -60 7 -90 10 -30 4 -71 9 -90 11 -82 12 -488 15 -495 4z"/>
<path d="M5158 1885 c-2 -2 -41 -6 -88 -9 -47 -3 -94 -8 -105 -10 -11 -2 -42
-6 -70 -10 -172 -24 -437 -83 -615 -138 -36 -11 -72 -21 -80 -23 -47 -11 -297
-106 -398 -151 -124 -55 -292 -141 -400 -203 -62 -37 -124 -72 -137 -79 -23
-12 -175 -247 -175 -270 0 -18 3 -16 115 42 186 97 464 205 700 272 50 14 97
27 105 29 8 2 33 8 55 14 45 12 276 58 333 67 20 3 51 8 67 10 39 7 66 11 145
19 36 4 72 9 81 10 87 17 511 25 764 15 l110 -5 0 210 0 210 -202 1 c-111 1
-203 0 -205 -1z"/>
<path d="M795 853 c-115 -13 -112 -12 -110 -41 3 -38 4 -42 13 -41 19 3 28 -3
29 -21 1 -11 -1 -20 -5 -21 -4 0 -23 -2 -43 -3 -68 -4 -110 -49 -123 -130 -14
-89 93 -160 175 -115 11 6 21 4 28 -5 7 -9 24 -11 53 -7 24 3 160 5 303 4 143
-1 268 1 278 3 22 7 24 64 2 64 -11 0 -15 19 -17 93 l-3 92 -55 -3 c-93 -4
-102 -8 -98 -45 2 -22 8 -32 19 -31 12 1 16 -9 15 -50 -1 -48 -3 -51 -28 -54
-16 -2 -28 0 -28 5 -1 4 -2 36 -3 69 -1 45 -7 68 -21 83 -26 28 -78 37 -115
18 -25 -12 -32 -13 -41 -2 -12 14 -101 10 -130 -5 -21 -12 -21 -58 2 -65 14
-5 18 -17 18 -56 0 -49 -1 -50 -27 -47 l-28 3 -5 154 c-3 91 -9 155 -15 156
-5 1 -23 0 -40 -2z m-70 -250 c0 -41 -3 -48 -20 -48 -13 0 -21 8 -23 24 -6 37
7 71 26 71 15 0 18 -9 17 -47z m347 25 c2 -7 4 -29 4 -48 -1 -29 -5 -36 -24
-38 -22 -3 -23 -1 -18 45 2 26 5 49 5 51 3 8 30 0 33 -10z"/>
<path d="M2107 854 c-1 -1 -20 -3 -42 -5 -56 -4 -75 -15 -70 -42 3 -12 12 -28
22 -35 24 -18 24 -220 -1 -234 -23 -13 -21 -55 3 -63 11 -3 52 -5 92 -3 60 2
73 6 77 21 4 17 6 17 28 -3 15 -15 33 -21 58 -20 20 1 51 2 69 2 17 -1 50 -1
72 0 22 0 198 1 390 2 l350 1 3 33 c2 23 -1 32 -12 32 -12 0 -16 18 -18 93
l-3 92 -30 -2 c-28 -2 -29 -1 -11 12 10 8 22 16 27 17 15 6 20 53 7 71 -32 43
-132 15 -123 -34 6 -30 24 -49 46 -49 11 0 19 -4 19 -10 0 -5 -13 -10 -29 -10
-46 0 -61 -10 -61 -40 0 -19 6 -31 19 -35 15 -4 18 -15 17 -53 -1 -44 -3 -47
-28 -50 -28 -3 -28 -2 -28 52 0 30 -5 67 -12 81 -22 48 -78 63 -141 37 -23
-10 -33 -9 -53 5 -22 14 -33 15 -67 6 -24 -7 -46 -8 -52 -3 -10 8 -34 7 -112
-6 -26 -4 -31 -9 -30 -28 1 -12 9 -30 18 -39 18 -18 24 -93 8 -103 -6 -3 -20
-3 -32 0 -20 5 -22 11 -21 61 2 49 -2 61 -25 87 -19 21 -39 32 -65 35 -45 5
-127 -20 -150 -46 -15 -17 -15 -20 2 -41 18 -22 18 -23 -3 -44 -12 -12 -26
-30 -32 -40 -21 -38 -28 -4 -26 131 2 158 -1 172 -28 170 -11 -1 -21 -2 -22
-3z m233 -220 c0 -2 -15 -4 -32 -3 -27 0 -29 2 -13 8 18 8 45 4 45 -5z m331
-4 c6 -47 -1 -90 -15 -90 -14 0 -25 49 -18 83 4 18 31 24 33 7z m158 -40 c-2
-42 -5 -50 -21 -50 -16 0 -18 7 -17 43 3 50 6 57 25 57 11 0 14 -12 13 -50z
m-494 -40 c-3 -5 -10 -10 -16 -10 -5 0 -9 5 -9 10 0 6 7 10 16 10 8 0 12 -4 9
-10z"/>
<path d="M423 838 c-23 -11 -37 -47 -27 -72 3 -8 19 -19 36 -25 60 -21 116 35
80 79 -20 24 -59 32 -89 18z"/>
<path d="M1265 826 c-49 -49 15 -116 80 -83 56 29 42 91 -23 102 -26 4 -38 0
-57 -19z"/>
<path d="M4650 837 c-29 -15 -37 -53 -17 -82 20 -26 84 -26 103 0 41 56 -20
115 -86 82z"/>
<path d="M63 822 c-7 -7 -13 -22 -13 -33 0 -25 -1 -30 -11 -56 -10 -26 -7 -28
44 -37 34 -6 38 -5 49 21 7 15 13 29 14 31 1 1 11 4 22 7 29 5 35 -8 14 -31
-84 -92 -160 -196 -155 -212 14 -39 21 -41 168 -40 l144 0 12 57 c6 31 13 59
15 63 6 9 -57 26 -74 20 -7 -2 -19 -17 -28 -33 -11 -22 -22 -29 -44 -29 -33 0
-36 5 -17 24 12 13 86 98 131 151 30 35 29 32 15 74 -8 21 -18 31 -32 32 -179
5 -242 3 -254 -9z"/>
<path d="M1580 830 c-30 -4 -35 -9 -34 -30 2 -39 3 -40 19 -40 12 0 15 -18 15
-103 0 -90 -2 -105 -20 -120 -21 -18 -25 -34 -12 -53 9 -15 180 -15 189 0 12
19 10 46 -4 57 -7 6 -13 8 -13 3 0 -5 -4 -4 -8 3 -4 7 -7 55 -5 108 1 75 6
100 18 109 19 14 28 53 13 62 -13 8 -112 11 -158 4z"/>
<path d="M3554 825 c-7 -5 -12 -19 -9 -30 2 -11 4 -23 4 -27 1 -5 8 -8 16 -8
24 0 20 -207 -4 -220 -10 -5 -17 -20 -16 -37 l0 -28 93 -1 c87 -1 94 0 101 20
10 26 3 46 -15 46 -14 0 -16 14 -16 105 1 111 2 115 17 115 8 0 15 3 16 8 0 4
2 17 5 30 2 14 -2 25 -11 28 -27 11 -167 9 -181 -1z"/>
<path d="M4459 790 c-45 -13 -69 -30 -69 -50 0 -13 -7 -20 -20 -20 -11 0 -20
-4 -20 -10 0 -5 -5 -10 -11 -10 -5 0 -8 4 -5 9 8 13 -31 20 -94 17 -109 -5
-151 -56 -115 -138 5 -13 3 -18 -9 -18 -9 0 -16 -7 -16 -16 0 -9 -6 -14 -12
-12 -8 3 -13 25 -14 59 -1 75 -9 93 -49 115 -33 18 -38 18 -80 3 -35 -13 -45
-13 -49 -3 -3 9 -18 11 -48 7 -24 -3 -54 -6 -68 -7 -20 -2 -26 -8 -28 -33 -2
-24 2 -33 16 -37 16 -6 20 -15 18 -52 -1 -26 -8 -49 -15 -54 -21 -12 -23 -58
-3 -64 9 -2 86 -4 170 -4 120 0 155 3 159 14 4 11 7 11 20 -1 17 -18 78 -22
150 -10 37 6 72 38 79 73 5 27 2 38 -17 59 -13 15 -19 23 -12 19 7 -4 17 2 23
14 19 36 45 10 46 -47 2 -86 4 -92 30 -110 28 -18 97 -19 153 -3 17 5 33 5 36
0 3 -4 43 -8 89 -8 78 1 85 3 88 22 6 29 -1 46 -17 46 -10 0 -13 20 -13 84 0
47 -3 90 -7 96 -4 7 -21 9 -44 6 -36 -6 -68 -7 -148 -5 -42 1 -43 2 -43 34 0
37 -13 45 -51 35z m-209 -140 c0 -5 -2 -10 -4 -10 -3 0 -8 5 -11 10 -3 6 -1
10 4 10 6 0 11 -4 11 -10z m380 -62 c0 -41 -3 -48 -20 -48 -11 0 -20 3 -20 8
0 4 -18 6 -39 4 -35 -4 -40 -1 -43 20 -2 12 -2 35 0 50 4 23 10 27 41 30 64 5
81 -8 81 -64z m-678 20 c5 -49 -1 -68 -23 -68 -16 0 -19 7 -19 43 0 24 3 47 7
50 15 16 31 5 35 -25z m268 -58 c12 -8 11 -10 -7 -10 -13 0 -23 5 -23 10 0 13
11 13 30 0z"/>
<path d="M4868 784 c-27 -8 -49 -19 -49 -24 -1 -6 -2 -16 -3 -22 0 -7 -11 -14
-23 -16 -31 -5 -33 -61 -3 -69 17 -5 20 -14 20 -72 0 -38 5 -74 13 -83 18 -25
75 -36 132 -25 59 10 77 24 69 55 -5 19 -13 22 -50 22 l-44 0 1 51 2 50 33 -3
c18 -1 36 1 40 5 22 22 47 -23 33 -60 -5 -13 -4 -25 1 -28 5 -3 7 -12 4 -19
-7 -19 38 -65 73 -75 19 -6 40 -4 59 4 20 9 35 9 49 2 21 -11 75 -12 106 -2
25 8 26 63 2 73 -15 6 -18 20 -18 91 l0 85 -45 1 c-25 0 -59 -2 -77 -6 -18 -4
-35 -4 -38 -1 -3 4 -54 7 -113 7 l-107 0 -1 25 c-2 58 3 55 -66 34z m317 -132
c9 -6 11 -37 6 -90 0 -8 -7 -12 -13 -10 -8 3 -13 25 -14 56 0 52 2 58 21 44z"/>
<path d="M5430 781 c-30 -11 -45 -23 -44 -34 1 -10 -8 -20 -22 -23 -13 -3 -24
-9 -25 -13 -6 -47 -4 -53 16 -61 20 -8 22 -14 19 -71 -2 -54 1 -65 21 -85 28
-28 53 -31 135 -19 55 8 60 11 60 37 0 20 1 19 26 -5 14 -15 45 -30 67 -35 37
-7 65 -5 143 13 26 6 36 38 19 61 -9 13 -18 15 -41 9 -35 -11 -74 -9 -87 4 -5
5 9 8 36 6 25 -1 60 4 77 12 31 12 32 15 27 54 -10 77 -78 113 -167 89 -64
-17 -119 -86 -109 -136 5 -29 -3 -35 -43 -32 -46 3 -45 0 -39 86 1 7 16 12 41
12 25 0 40 5 41 13 1 6 3 22 4 35 2 17 -3 22 -21 23 -13 1 -32 2 -41 3 -12 0
-20 12 -23 35 -3 19 -9 36 -15 37 -5 2 -30 -5 -55 -15z m314 -130 c3 -5 -1
-12 -10 -15 -20 -8 -29 -1 -19 13 8 13 22 14 29 2z"/>
<path d="M428 722 c-47 -3 -67 -19 -62 -49 1 -7 2 -18 3 -24 0 -6 8 -9 16 -5
15 5 17 0 17 -49 0 -48 -2 -55 -17 -55 -10 0 -15 -10 -15 -33 l0 -34 88 2 c48
1 90 2 93 3 12 4 2 56 -12 61 -11 5 -14 24 -14 86 1 97 0 103 -28 101 -12 0
-43 -2 -69 -4z"/>
<path d="M1845 724 c-32 -7 -75 -46 -80 -73 -2 -13 2 -36 10 -51 13 -26 13
-28 -7 -33 -14 -4 -19 -11 -14 -22 3 -9 6 -27 6 -40 0 -29 23 -37 101 -36 69
1 113 20 133 60 14 26 13 32 -3 65 -15 28 -16 36 -5 36 10 0 12 10 8 43 -4 23
-8 44 -10 46 -6 7 -115 10 -139 5z m65 -74 c0 -5 -4 -10 -10 -10 -5 0 -10 5
-10 10 0 6 5 10 10 10 6 0 10 -4 10 -10z m-34 -103 c4 -4 -2 -7 -14 -7 -12 0
-22 4 -22 9 0 10 26 9 36 -2z"/>
<path d="M3275 721 c-47 -14 -83 -43 -100 -77 -56 -118 45 -205 191 -165 45
12 61 38 39 67 -10 14 -17 15 -41 7 -32 -11 -73 -1 -76 19 0 7 -2 20 -3 28 -3
31 15 50 42 46 14 -3 28 -7 31 -10 2 -3 13 -1 22 4 23 12 43 67 28 76 -15 9
-108 13 -133 5z"/>
</g>
</svg>
